<svg width="64" height="21" viewBox="0 0 64 21" fill="none" xmlns="http://www.w3.org/2000/svg">
<path d="M62.0065 12.834L63.782 14.0176C63.2057 14.8664 61.8275 16.3226 59.4446 16.3226C56.4856 16.3226 54.282 14.0333 54.282 11.1209C54.282 8.02175 56.509 5.91925 59.1955 5.91925C61.8975 5.91925 63.2212 8.06838 63.6496 9.22863L63.8832 9.8205L56.9217 12.7016C57.4512 13.7451 58.2767 14.2746 59.4446 14.2746C60.6127 14.2746 61.4225 13.6984 62.0065 12.834ZM56.548 10.9575L61.1967 9.02625C60.9397 8.38 60.1767 7.92063 59.2655 7.92063C58.1054 7.92063 56.4935 8.9485 56.548 10.9575Z" fill="#FF302F"/>
<path d="M50.9259 0.616394H53.1684V15.8476H50.9259V0.616394Z" fill="#20B15A"/>
<path d="M47.3906 6.32412H49.5554V15.575C49.5554 19.4139 47.2894 20.9946 44.6106 20.9946C42.0878 20.9946 40.5694 19.2971 40.0009 17.9189L41.9865 17.0934C42.3446 17.9421 43.209 18.9467 44.6106 18.9467C46.3315 18.9467 47.3906 17.8799 47.3906 15.8865V15.139H47.3128C46.7988 15.7619 45.8176 16.3225 44.5718 16.3225C41.9709 16.3225 39.588 14.0565 39.588 11.1365C39.588 8.20075 41.9709 5.9115 44.5718 5.9115C45.8099 5.9115 46.7988 6.46437 47.3128 7.07175H47.3906V6.32412ZM47.5463 11.1365C47.5463 9.29875 46.3238 7.95937 44.7664 7.95937C43.1934 7.95937 41.8696 9.29875 41.8696 11.1365C41.8696 12.9507 43.1934 14.2667 44.7664 14.2667C46.3239 14.2746 47.5464 12.9507 47.5464 11.1365" fill="#3686F7"/>
<path d="M27.277 11.0975C27.277 14.0955 24.941 16.2991 22.0754 16.2991C19.2099 16.2991 16.8738 14.0877 16.8738 11.0975C16.8738 8.084 19.2099 5.88812 22.0754 5.88812C24.941 5.88812 27.277 8.084 27.277 11.0975ZM25.0033 11.0975C25.0033 9.22875 23.6483 7.94375 22.0754 7.94375C20.5025 7.94375 19.1475 9.22875 19.1475 11.0975C19.1475 12.9507 20.5025 14.2512 22.0754 14.2512C23.6484 14.2512 25.0033 12.9507 25.0033 11.0975Z" fill="#FF302F"/>
<path d="M38.6381 11.1209C38.6381 14.1189 36.302 16.3225 33.4365 16.3225C30.5709 16.3225 28.2349 14.1188 28.2349 11.1209C28.2349 8.10738 30.5709 5.91925 33.4365 5.91925C36.302 5.91925 38.6381 8.09963 38.6381 11.1209ZM36.3565 11.1209C36.3565 9.25213 35.0016 7.96713 33.4286 7.96713C31.8556 7.96713 30.5007 9.25213 30.5007 11.1209C30.5007 12.9741 31.8557 14.2746 33.4286 14.2746C35.0094 14.2746 36.3565 12.9664 36.3565 11.1209Z" fill="#FFBA40"/>
<path d="M8.32377 14.041C5.06102 14.041 2.50702 11.409 2.50702 8.14623C2.50702 4.8836 5.06102 2.2516 8.32377 2.2516C10.0836 2.2516 11.3684 2.9446 12.3184 3.83235L13.8836 2.26723C12.5599 0.997977 10.7923 0.0322266 8.32377 0.0322266C3.85414 0.0323516 0.0930176 3.67673 0.0930176 8.14623C0.0930176 12.6157 3.85414 16.2602 8.32377 16.2602C10.7378 16.2602 12.5599 15.466 13.9849 13.9865C15.4488 12.5225 15.9004 10.4667 15.9004 8.80035C15.9004 8.2786 15.8381 7.74135 15.768 7.34423H8.32377V9.50898H13.6266C13.4709 10.864 13.0426 11.7906 12.4119 12.4212C11.6488 13.1922 10.4419 14.041 8.32377 14.041Z" fill="#3686F7"/>
</svg>
